<?xml version="1.0" encoding="UTF-8" standalone="no"?>
<!-- Created with Inkscape (http://www.inkscape.org/) -->

<svg
   xmlns:dc="http://purl.org/dc/elements/1.1/"
   xmlns:cc="http://creativecommons.org/ns#"
   xmlns:rdf="http://www.w3.org/1999/02/22-rdf-syntax-ns#"
   xmlns:svg="http://www.w3.org/2000/svg"
   xmlns="http://www.w3.org/2000/svg"
   xmlns:sodipodi="http://sodipodi.sourceforge.net/DTD/sodipodi-0.dtd"
   xmlns:inkscape="http://www.inkscape.org/namespaces/inkscape"
   width="112.41148mm"
   height="113.32829mm"
   viewBox="0 0 112.41148 113.32831"
   version="1.1"
   id="svg8"
   inkscape:version="0.92.2 (5c3e80d, 2017-08-06)"
   sodipodi:docname="logo_merged.svg"
   style="enable-background:new">
  <defs
     id="defs2" />
  <sodipodi:namedview
     id="base"
     pagecolor="#ffffff"
     bordercolor="#666666"
     borderopacity="1.0"
     inkscape:pageopacity="0.0"
     inkscape:pageshadow="2"
     inkscape:zoom="1.64016"
     inkscape:cx="107.36066"
     inkscape:cy="280.59975"
     inkscape:document-units="mm"
     inkscape:current-layer="layer1"
     showgrid="false"
     inkscape:window-width="1920"
     inkscape:window-height="988"
     inkscape:window-x="0"
     inkscape:window-y="27"
     inkscape:window-maximized="1"
     showguides="true"
     inkscape:guide-bbox="true"
     inkscape:object-nodes="false">
    <sodipodi:guide
       position="-45.329676,113.72734"
       orientation="0,1"
       id="guide20"
       inkscape:locked="false" />
    <sodipodi:guide
       position="112.9209,65.655303"
       orientation="1,0"
       id="guide22"
       inkscape:locked="false" />
    <sodipodi:guide
       position="-2.7849186e-07,71.462665"
       orientation="1,0"
       id="guide26"
       inkscape:locked="false" />
    <sodipodi:guide
       position="37.747844,-0.00013568843"
       orientation="0,1"
       id="guide28"
       inkscape:locked="false" />
  </sodipodi:namedview>
  <metadata
     id="metadata5">
    <rdf:RDF>
      <cc:Work
         rdf:about="">
        <dc:format>image/svg+xml</dc:format>
        <dc:type
           rdf:resource="http://purl.org/dc/dcmitype/StillImage" />
        <dc:title></dc:title>
      </cc:Work>
    </rdf:RDF>
  </metadata>
  <g
     inkscape:label="Layer 1"
     inkscape:groupmode="layer"
     id="layer1"
     transform="translate(-55.940479,-70.278709)">
    <path
       style="stroke-width:0.99999994"
       d="m 286.41016,50.859375 c -2.57205,0.06923 -4.39356,0.639641 -5.98828,2.234375 -3.90548,3.905472 -1.19839,11.821148 3.70507,16.724609 2.04311,2.043109 3.93929,3.416738 6.61524,4.009766 l 90.98047,20.164063 20.16406,90.982422 c 0.59303,2.67595 1.96666,4.57017 4.00976,6.61328 4.90347,4.90346 12.81914,7.6125 16.72461,3.70703 1.82256,-1.82255 2.30668,-3.94199 2.23438,-7.13867 L 414.47461,88.208984 C 413.84543,83.9347 410.24456,77.728936 404.11523,71.599609 397.98591,65.470282 392.44871,62.017249 387.91406,61.648438 L 287.55859,50.859375 c -0.39958,-0.009 -0.781,-0.0099 -1.14843,0 z m -92.48633,93.552735 c -2.57205,0.0692 -4.39355,0.63964 -5.98828,2.23437 -3.90548,3.90548 -1.19643,11.82115 3.70703,16.72461 2.04311,2.04311 3.93733,3.41674 6.61328,4.00977 l 90.98242,20.16406 20.16211,90.98242 c 0.59303,2.67595 1.96666,4.57019 4.00977,6.61328 4.90346,4.90347 12.81913,7.61251 16.72461,3.70704 1.82255,-1.82256 2.30862,-3.942 2.23632,-7.13868 l -10.38281,-99.94726 c -0.62918,-4.27429 -4.23005,-10.48005 -10.35937,-16.60938 -6.12933,-6.12932 -11.66457,-9.58236 -16.19922,-9.95117 L 195.07422,144.41211 c -0.39959,-0.009 -0.78296,-0.01 -1.15039,0 z M 142.85742,193.4668 A 142.85714,142.85714 0 0 0 0,336.32227 142.85714,142.85714 0 0 0 142.85742,479.17969 142.85714,142.85714 0 0 0 285.71484,336.32227 142.85714,142.85714 0 0 0 142.85742,193.4668 Z M 83.644531,255.83984 184,266.63086 c 4.53465,0.36881 10.07184,3.82184 16.20117,9.95117 6.12933,6.12933 9.7302,12.33509 10.35938,16.60938 l 10.38086,99.94531 c 0.0723,3.19667 -0.41183,5.31612 -2.23438,7.13867 -3.90547,3.90547 -11.82115,1.19643 -16.72461,-3.70703 -2.04311,-2.04311 -3.41674,-3.93734 -4.00976,-6.61328 L 177.80859,298.97266 86.826172,278.81055 c -2.675947,-0.59303 -4.570172,-1.96666 -6.613281,-4.00977 -4.903462,-4.90346 -7.612504,-12.81914 -3.707032,-16.72461 1.822554,-1.82255 3.941996,-2.30862 7.138672,-2.23633 z"
       transform="matrix(0.26458333,0,0,0.26458333,55.940479,56.824042)"
       id="path10"
       inkscape:connector-curvature="0" />
  </g>
</svg>
